<svg xmlns="http://www.w3.org/2000/svg" width="1200" height="630" viewBox="0 0 1200 630" role="img" aria-labelledby="title desc">
  <title id="title">ChronoRoute NYC Yellow Taxi Analytics</title>
  <desc id="desc">Social preview image for ChronoRoute, an NYC Yellow Taxi analytics dashboard.</desc>
  <rect width="1200" height="630" fill="#00003c"/>
  <g opacity="0.36" stroke="#ffffff" stroke-width="1">
    <path d="M112 122 C 250 180, 290 82, 420 138 S 690 220, 792 136 1018 120, 1098 212" fill="none"/>
    <path d="M86 338 C 242 294, 324 398, 470 338 S 690 238, 844 330 1036 424, 1130 336" fill="none"/>
    <path d="M138 522 C 290 446, 428 530, 588 478 S 778 390, 944 474 1052 548, 1132 502" fill="none"/>
  </g>
  <g transform="translate(84 96)">
    <text x="0" y="0" fill="#ffffff" font-family="Inter, Arial, sans-serif" font-size="30" font-weight="500" letter-spacing="1">NYC TLC YELLOW TAXI DATA</text>
    <text x="0" y="108" fill="#ffffff" font-family="Inter, Arial, sans-serif" font-size="92" font-weight="700">Chrono<tspan fill="#d2ff00">Route</tspan></text>
    <text x="0" y="176" fill="#d8d8f0" font-family="Inter, Arial, sans-serif" font-size="34">Manhattan demand, taxi supply balance, and passenger flow corridors.</text>
  </g>
  <g transform="translate(836 102)">
    <rect x="0" y="0" width="94" height="94" rx="16" fill="#ff33cc" fill-opacity="0.78"/>
    <rect x="86" y="80" width="122" height="122" rx="18" fill="#d2ff00" fill-opacity="0.82"/>
    <rect x="-34" y="202" width="148" height="148" rx="22" fill="#ff33cc" fill-opacity="0.72"/>
    <rect x="146" y="258" width="104" height="104" rx="18" fill="#d2ff00" fill-opacity="0.76"/>
    <path d="M24 326 C 90 220, 154 198, 212 90" fill="none" stroke="#00f5d4" stroke-width="7" stroke-linecap="round"/>
    <path d="M92 424 C 144 320, 222 284, 294 180" fill="none" stroke="#00f5d4" stroke-width="5" stroke-linecap="round" opacity="0.8"/>
  </g>
  <g transform="translate(84 474)">
    <rect width="188" height="58" rx="29" fill="#d2ff00"/>
    <text x="28" y="38" fill="#00003c" font-family="Inter, Arial, sans-serif" font-size="21" font-weight="700">Explore flows</text>
    <text x="224" y="38" fill="#ffffff" font-family="Inter, Arial, sans-serif" font-size="21">January to March 2026</text>
  </g>
</svg>
